<?xml version="1.0" encoding="UTF-8"?>
<svg width="71px" height="72px" viewBox="0 0 71 72" version="1.1" xmlns="http://www.w3.org/2000/svg" xmlns:xlink="http://www.w3.org/1999/xlink">
    <!-- Generator: Sketch 43.1 (39012) - http://www.bohemiancoding.com/sketch -->
    <title>Untitled</title>
    <desc>Created with Sketch.</desc>
    <defs></defs>
    <g id="Page-1" stroke="none" stroke-width="1" fill="none" fill-rule="evenodd">
        <path d="M0.01217,69.736 C0.01217,70.90414 0.96924,71.8612 2.13985,71.8612 L68.74147,71.86612 C69.91087,71.86612 70.86676,70.90901 70.86676,69.74084 L70.85447,3.1252 C70.85447,1.95642 69.8975,1 68.72797,1 L2.1252,1.01216 C0.95581,1.01216 0,1.96924 0,3.13867 L0.01217,69.736" id="path2524" fill="#010099" fill-rule="nonzero"></path>
        <path d="M44.49825,33.97001 C42.1521,33.97061 38.93925,33.97122 38.5046,33.97122 C38.20186,33.97122 38.07735,34.14575 38.07735,34.14575 L21.55636,54.64322 C21.45874,54.76164 21.47949,54.88362 21.64547,54.88362 C22.02511,54.88362 23.55099,54.88362 24.09172,54.88297 C24.33597,54.88297 24.36161,54.81649 24.40547,54.75362 L27.9211,50.24312 C27.9211,50.24312 27.97611,50.16072 28.04814,50.16072 C28.10676,50.16072 33.95137,50.1595 33.95137,50.1595 C33.95137,50.1595 34.04175,50.15462 34.02462,50.24377 C34.00761,50.33224 33.16287,54.66577 33.16287,54.66577 C33.15311,54.72436 33.17012,54.88297 33.37525,54.88297 C34.14672,54.88297 39.69849,54.88184 40.509,54.88184 C40.61161,54.88184 40.64824,54.84761 40.66776,54.74634 L44.6862,34.18485 C44.6862,34.18485 44.75822,33.97001 44.49825,33.97001 Z M34.39324,48.02701 L29.74971,48.02762 C29.74971,48.02762 29.7205,48.03422 29.70085,48.00622 C29.68136,47.97811 29.71672,47.93786 29.71672,47.93786 L35.88985,40.01912 C35.88985,40.01912 35.93499,39.95751 35.98511,39.95751 C36.03271,39.95751 36.01562,40.02526 36.01562,40.02526 L34.46774,47.96536 C34.46774,47.96536 34.46159,47.99825 34.44824,48.01297 C34.43364,48.02701 34.39324,48.02701 34.39324,48.02701 L34.39324,48.02701 Z" id="path2526" fill="#FFFFFF" fill-rule="nonzero"></path>
        <path d="M5.59689,52.2701 C5.53829,52.51424 5.67139,52.72172 6.1169,53.08862 C6.95186,53.7771 9.42994,55.27311 13.36547,55.27185 C20.45047,55.27062 23.01872,50.69112 22.12036,46.80749 C21.88114,45.76986 20.55297,40.39872 20.36136,39.64261 C19.8035,37.44287 20.87159,35.85961 22.96997,35.85836 C24.762,35.8566 25.88261,36.5365 26.86161,37.15237 C27.04712,37.26949 27.18261,37.33299 27.23152,37.11812 C27.25949,36.993 27.58175,35.32125 27.58175,35.32125 C27.58175,35.32125 27.67826,34.99837 27.2546,34.7775 C26.60526,34.4375 24.98172,33.51949 21.56735,33.51774 C15.21359,33.514 12.50846,37.59362 13.6145,42.01501 C13.96846,43.43037 15.387,48.72651 15.39062,49.74751 C15.39189,50.14001 15.59936,52.84261 12.34249,52.84322 C9.31759,52.84387 7.23511,50.77786 6.53439,50.0625 C6.4172,49.94347 6.26099,50.00875 6.19015,50.26997 C6.15352,50.40421 5.59689,52.2701 5.59689,52.2701" id="path2528" fill="#FFFFFF" fill-rule="nonzero"></path>
        <path d="M43.17009,52.37764 C43.11161,52.62174 43.24334,52.82922 43.689,53.196 C44.52385,53.88449 46.8066,55.26575 50.74334,55.26514 C57.82837,55.26387 60.39672,50.68449 59.49825,46.80074 C59.25785,45.76314 57.93087,40.39212 57.73796,39.63525 C57.18136,37.43611 58.24821,35.85286 60.34546,35.85111 C62.13985,35.84985 63.26047,36.52975 64.23822,37.14559 C64.42385,37.26285 64.55935,37.32625 64.6081,37.11149 C64.63751,36.98636 64.95974,35.31461 64.95974,35.31461 C64.95974,35.31461 65.05487,34.99174 64.63262,34.77075 C63.98074,34.4301 62.35957,33.51285 58.94412,33.51099 C52.58911,33.50675 49.88525,37.58687 50.99235,42.00822 C51.34636,43.42309 52.76364,48.71972 52.76737,49.74087 C52.76974,50.13322 52.97611,52.83536 49.71924,52.83651 C46.69311,52.83711 44.69849,50.84187 43.99047,50.13387 C43.83422,49.97762 43.59985,50.03621 43.56811,50.26322 C43.54736,50.40124 43.17009,52.37764 43.17009,52.37764" id="path2530" fill="#FFFFFF" fill-rule="nonzero"></path>
    </g>
</svg>